<?xml version="1.0" standalone="no"?>
<!DOCTYPE svg PUBLIC "-//W3C//DTD SVG 20010904//EN"
 "http://www.w3.org/TR/2001/REC-SVG-20010904/DTD/svg10.dtd">
<svg version="1.0" xmlns="http://www.w3.org/2000/svg"
 width="200.000000pt" height="200.000000pt" viewBox="0 0 200.000000 200.000000"
 preserveAspectRatio="xMidYMid meet">
<metadata>
Created by potrace 1.11, written by Peter Selinger 2001-2013
</metadata>
<g transform="translate(0.000000,200.000000) scale(0.100000,-0.100000)"
fill="#000000" stroke="none">
<path d="M905 1933 c-91 -20 -147 -38 -209 -67 -39 -19 -90 -39 -113 -45 -64
-17 -114 -41 -108 -50 2 -5 21 -5 41 -1 l37 8 -35 -36 c-19 -20 -45 -48 -57
-62 -38 -42 -98 -151 -122 -221 -17 -48 -30 -70 -50 -82 -89 -50 -100 -239
-26 -424 l23 -57 -61 -106 c-34 -58 -91 -157 -128 -220 -38 -66 -73 -141 -82
-175 -17 -70 -14 -210 8 -290 l13 -50 982 -3 c540 -1 982 0 982 3 0 3 -28 53
-62 112 l-61 107 -2 92 -1 92 59 -2 c32 0 61 2 63 5 2 4 -54 107 -125 231
l-129 224 24 71 c63 187 46 346 -41 393 -17 9 -31 32 -46 79 -27 80 -90 187
-144 246 -38 41 -40 44 -21 50 20 6 20 7 -4 17 -29 13 -122 59 -201 98 -31 16
-85 36 -120 46 -60 16 -240 27 -284 17z"/>
</g>
</svg>
